<svg width="230" height="281" viewBox="0 0 230 281" fill="none" xmlns="http://www.w3.org/2000/svg">
<path d="M94.6043 0C137.49 10.9412 162.96 26.8611 168.726 39.1545C175.745 54.1222 155.176 64.1509 106.835 54.7728C81.8602 49.9269 69.0911 53.3454 64.7922 59.2186C45.7794 85.1664 111.688 129.534 142.334 147.672C-6.47892 110.569 -74.4419 212.296 118.505 254.163C135.009 257.745 166.673 259.028 166.591 263.782C166.582 268.893 85.2413 269.319 42.3352 270.629C71.5998 278.457 141.962 283.784 187.712 279.447C232.182 275.239 251.604 260.137 195.519 246.335C166.573 239.217 53.1317 217.696 65.083 194.767C82.5418 161.283 157.993 169.347 201.954 164.774C93.8749 90.4579 69.3544 72.9473 216.023 92.0762C254.394 100.595 199.794 38.1386 142.55 12.0182C129.106 6.68228 111.194 2.56048 94.6043 0Z" fill="#61AFEE"/>
</svg>
